<mxfile host="app.diagrams.net" modified="2022-12-21T08:29:50.831Z" agent="5.0 (Windows NT 10.0; Win64; x64) AppleWebKit/537.36 (KHTML, like Gecko) Chrome/108.0.0.0 Safari/537.36" etag="xz-1dImgoauxRfMbh5fO" version="20.7.4" type="github">
  <diagram id="A-N_H2hhTLneZuX6YuYR" name="Page-1">
    <mxGraphModel dx="880" dy="444" grid="1" gridSize="10" guides="1" tooltips="1" connect="1" arrows="1" fold="1" page="1" pageScale="1" pageWidth="850" pageHeight="1100" math="0" shadow="0">
      <root>
        <mxCell id="0" />
        <mxCell id="1" parent="0" />
        <mxCell id="aRgtjxC-XMr0UuCk3uVI-1" value="The Author" style="swimlane;whiteSpace=wrap;html=1;" parent="1" vertex="1">
          <mxGeometry x="25" y="40" width="200" height="1040" as="geometry">
            <mxRectangle x="20" y="40" width="100" height="30" as="alternateBounds" />
          </mxGeometry>
        </mxCell>
        <mxCell id="aRgtjxC-XMr0UuCk3uVI-2" style="edgeStyle=orthogonalEdgeStyle;rounded=0;orthogonalLoop=1;jettySize=auto;html=1;exitX=0.5;exitY=1;exitDx=0;exitDy=0;exitPerimeter=0;entryX=0.5;entryY=0;entryDx=0;entryDy=0;" parent="aRgtjxC-XMr0UuCk3uVI-1" source="aRgtjxC-XMr0UuCk3uVI-3" target="aRgtjxC-XMr0UuCk3uVI-5" edge="1">
          <mxGeometry relative="1" as="geometry" />
        </mxCell>
        <mxCell id="aRgtjxC-XMr0UuCk3uVI-3" value="Start" style="strokeWidth=2;html=1;shape=mxgraph.flowchart.start_2;whiteSpace=wrap;" parent="aRgtjxC-XMr0UuCk3uVI-1" vertex="1">
          <mxGeometry x="75" y="40" width="50" height="50" as="geometry" />
        </mxCell>
        <mxCell id="aRgtjxC-XMr0UuCk3uVI-4" style="edgeStyle=orthogonalEdgeStyle;rounded=0;orthogonalLoop=1;jettySize=auto;html=1;exitX=0.5;exitY=1;exitDx=0;exitDy=0;entryX=0.5;entryY=0;entryDx=0;entryDy=0;" parent="aRgtjxC-XMr0UuCk3uVI-1" source="aRgtjxC-XMr0UuCk3uVI-5" target="aRgtjxC-XMr0UuCk3uVI-7" edge="1">
          <mxGeometry relative="1" as="geometry" />
        </mxCell>
        <mxCell id="aRgtjxC-XMr0UuCk3uVI-5" value="The author open the platform" style="rounded=1;whiteSpace=wrap;html=1;absoluteArcSize=1;arcSize=14;strokeWidth=2;" parent="aRgtjxC-XMr0UuCk3uVI-1" vertex="1">
          <mxGeometry x="40" y="120" width="120" height="50" as="geometry" />
        </mxCell>
        <mxCell id="aRgtjxC-XMr0UuCk3uVI-6" style="edgeStyle=orthogonalEdgeStyle;rounded=0;orthogonalLoop=1;jettySize=auto;html=1;exitX=0.5;exitY=1;exitDx=0;exitDy=0;entryX=0.5;entryY=0;entryDx=0;entryDy=0;" parent="aRgtjxC-XMr0UuCk3uVI-1" source="aRgtjxC-XMr0UuCk3uVI-7" target="aRgtjxC-XMr0UuCk3uVI-9" edge="1">
          <mxGeometry relative="1" as="geometry" />
        </mxCell>
        <mxCell id="aRgtjxC-XMr0UuCk3uVI-7" value="Login with Connect to Wallet (Metamask)" style="rounded=1;whiteSpace=wrap;html=1;absoluteArcSize=1;arcSize=14;strokeWidth=2;" parent="aRgtjxC-XMr0UuCk3uVI-1" vertex="1">
          <mxGeometry x="40" y="200" width="120" height="50" as="geometry" />
        </mxCell>
        <mxCell id="aRgtjxC-XMr0UuCk3uVI-8" style="edgeStyle=orthogonalEdgeStyle;rounded=0;orthogonalLoop=1;jettySize=auto;html=1;exitX=0.5;exitY=1;exitDx=0;exitDy=0;entryX=0.5;entryY=0;entryDx=0;entryDy=0;" parent="aRgtjxC-XMr0UuCk3uVI-1" source="aRgtjxC-XMr0UuCk3uVI-9" target="aRgtjxC-XMr0UuCk3uVI-11" edge="1">
          <mxGeometry relative="1" as="geometry" />
        </mxCell>
        <mxCell id="aRgtjxC-XMr0UuCk3uVI-9" value="Create a Rich Text" style="rounded=1;whiteSpace=wrap;html=1;absoluteArcSize=1;arcSize=14;strokeWidth=2;" parent="aRgtjxC-XMr0UuCk3uVI-1" vertex="1">
          <mxGeometry x="40" y="280" width="120" height="50" as="geometry" />
        </mxCell>
        <mxCell id="aRgtjxC-XMr0UuCk3uVI-10" style="edgeStyle=orthogonalEdgeStyle;rounded=0;orthogonalLoop=1;jettySize=auto;html=1;exitX=0.5;exitY=1;exitDx=0;exitDy=0;entryX=0.5;entryY=0;entryDx=0;entryDy=0;" parent="aRgtjxC-XMr0UuCk3uVI-1" source="aRgtjxC-XMr0UuCk3uVI-11" target="aRgtjxC-XMr0UuCk3uVI-12" edge="1">
          <mxGeometry relative="1" as="geometry" />
        </mxCell>
        <mxCell id="aRgtjxC-XMr0UuCk3uVI-11" value="Publish the Rich Text" style="rounded=1;whiteSpace=wrap;html=1;absoluteArcSize=1;arcSize=14;strokeWidth=2;" parent="aRgtjxC-XMr0UuCk3uVI-1" vertex="1">
          <mxGeometry x="40" y="360" width="120" height="50" as="geometry" />
        </mxCell>
        <mxCell id="aRgtjxC-XMr0UuCk3uVI-12" value="Sign the Rich Text" style="rounded=1;whiteSpace=wrap;html=1;absoluteArcSize=1;arcSize=14;strokeWidth=2;" parent="aRgtjxC-XMr0UuCk3uVI-1" vertex="1">
          <mxGeometry x="40" y="440" width="120" height="50" as="geometry" />
        </mxCell>
        <mxCell id="aRgtjxC-XMr0UuCk3uVI-13" style="edgeStyle=orthogonalEdgeStyle;rounded=0;orthogonalLoop=1;jettySize=auto;html=1;exitX=0.5;exitY=1;exitDx=0;exitDy=0;entryX=0.5;entryY=0;entryDx=0;entryDy=0;entryPerimeter=0;fontSize=9;" parent="aRgtjxC-XMr0UuCk3uVI-1" source="aRgtjxC-XMr0UuCk3uVI-14" target="aRgtjxC-XMr0UuCk3uVI-15" edge="1">
          <mxGeometry relative="1" as="geometry" />
        </mxCell>
        <mxCell id="aRgtjxC-XMr0UuCk3uVI-14" value="View the Rich Text" style="rounded=1;whiteSpace=wrap;html=1;absoluteArcSize=1;arcSize=14;strokeWidth=2;" parent="aRgtjxC-XMr0UuCk3uVI-1" vertex="1">
          <mxGeometry x="40" y="840" width="120" height="50" as="geometry" />
        </mxCell>
        <mxCell id="aRgtjxC-XMr0UuCk3uVI-15" value="End" style="strokeWidth=2;html=1;shape=mxgraph.flowchart.start_2;whiteSpace=wrap;" parent="aRgtjxC-XMr0UuCk3uVI-1" vertex="1">
          <mxGeometry x="75" y="920" width="50" height="50" as="geometry" />
        </mxCell>
        <mxCell id="aRgtjxC-XMr0UuCk3uVI-16" value="Our System" style="swimlane;whiteSpace=wrap;html=1;" parent="1" vertex="1">
          <mxGeometry x="225" y="40" width="200" height="1040" as="geometry" />
        </mxCell>
        <mxCell id="aRgtjxC-XMr0UuCk3uVI-19" value="Store the Rich Text (cache)" style="rounded=1;whiteSpace=wrap;html=1;absoluteArcSize=1;arcSize=14;strokeWidth=2;" parent="aRgtjxC-XMr0UuCk3uVI-16" vertex="1">
          <mxGeometry x="40" y="440" width="120" height="50" as="geometry" />
        </mxCell>
        <mxCell id="aRgtjxC-XMr0UuCk3uVI-22" style="edgeStyle=orthogonalEdgeStyle;rounded=0;orthogonalLoop=1;jettySize=auto;html=1;exitX=0.5;exitY=1;exitDx=0;exitDy=0;entryX=0.5;entryY=0;entryDx=0;entryDy=0;" parent="aRgtjxC-XMr0UuCk3uVI-16" source="aRgtjxC-XMr0UuCk3uVI-23" target="aRgtjxC-XMr0UuCk3uVI-24" edge="1">
          <mxGeometry relative="1" as="geometry" />
        </mxCell>
        <mxCell id="aRgtjxC-XMr0UuCk3uVI-23" value="&lt;font style=&quot;font-size: 10px;&quot;&gt;Retrieve the data from Blockchain and show it on our platform&lt;/font&gt;" style="rounded=1;whiteSpace=wrap;html=1;absoluteArcSize=1;arcSize=14;strokeWidth=2;" parent="aRgtjxC-XMr0UuCk3uVI-16" vertex="1">
          <mxGeometry x="40" y="520" width="120" height="50" as="geometry" />
        </mxCell>
        <mxCell id="ybuCih2673T1gLkviC2H-19" style="edgeStyle=orthogonalEdgeStyle;rounded=0;orthogonalLoop=1;jettySize=auto;html=1;exitX=0.5;exitY=1;exitDx=0;exitDy=0;entryX=0.5;entryY=0;entryDx=0;entryDy=0;fontSize=8;" edge="1" parent="aRgtjxC-XMr0UuCk3uVI-16" source="aRgtjxC-XMr0UuCk3uVI-24" target="ybuCih2673T1gLkviC2H-18">
          <mxGeometry relative="1" as="geometry" />
        </mxCell>
        <mxCell id="aRgtjxC-XMr0UuCk3uVI-24" value="Generate the Rich Text to Json Data" style="rounded=1;whiteSpace=wrap;html=1;absoluteArcSize=1;arcSize=14;strokeWidth=2;" parent="aRgtjxC-XMr0UuCk3uVI-16" vertex="1">
          <mxGeometry x="40" y="600" width="120" height="50" as="geometry" />
        </mxCell>
        <mxCell id="aRgtjxC-XMr0UuCk3uVI-26" style="edgeStyle=orthogonalEdgeStyle;rounded=0;orthogonalLoop=1;jettySize=auto;html=1;exitX=0.5;exitY=1;exitDx=0;exitDy=0;entryX=0.5;entryY=0;entryDx=0;entryDy=0;fontSize=9;" parent="aRgtjxC-XMr0UuCk3uVI-16" source="aRgtjxC-XMr0UuCk3uVI-27" target="aRgtjxC-XMr0UuCk3uVI-28" edge="1">
          <mxGeometry relative="1" as="geometry" />
        </mxCell>
        <mxCell id="aRgtjxC-XMr0UuCk3uVI-27" value="Retrieve the hash transaction" style="rounded=1;whiteSpace=wrap;html=1;absoluteArcSize=1;arcSize=14;strokeWidth=2;" parent="aRgtjxC-XMr0UuCk3uVI-16" vertex="1">
          <mxGeometry x="40" y="760" width="120" height="50" as="geometry" />
        </mxCell>
        <mxCell id="aRgtjxC-XMr0UuCk3uVI-28" value="Post the hash transaction to the Rich Text" style="rounded=1;whiteSpace=wrap;html=1;absoluteArcSize=1;arcSize=14;strokeWidth=2;" parent="aRgtjxC-XMr0UuCk3uVI-16" vertex="1">
          <mxGeometry x="40" y="840" width="120" height="50" as="geometry" />
        </mxCell>
        <mxCell id="ybuCih2673T1gLkviC2H-18" value="&lt;font style=&quot;font-size: 8px;&quot;&gt;Pay around 0.00005 AR to store the data in Permanent Storage Blockchain&lt;/font&gt;" style="rounded=1;whiteSpace=wrap;html=1;absoluteArcSize=1;arcSize=14;strokeWidth=2;" vertex="1" parent="aRgtjxC-XMr0UuCk3uVI-16">
          <mxGeometry x="40" y="680" width="120" height="50" as="geometry" />
        </mxCell>
        <mxCell id="ybuCih2673T1gLkviC2H-24" value="&lt;font style=&quot;font-size: 9px;&quot;&gt;Subsidized by the system&lt;/font&gt;" style="strokeWidth=2;html=1;shape=mxgraph.flowchart.annotation_2;align=left;labelPosition=right;pointerEvents=1;rotation=0;" vertex="1" parent="aRgtjxC-XMr0UuCk3uVI-16">
          <mxGeometry x="156" y="660" width="15" height="40" as="geometry" />
        </mxCell>
        <mxCell id="aRgtjxC-XMr0UuCk3uVI-29" value="Tableland System" style="swimlane;whiteSpace=wrap;html=1;" parent="1" vertex="1">
          <mxGeometry x="425" y="40" width="200" height="1040" as="geometry" />
        </mxCell>
        <mxCell id="ybuCih2673T1gLkviC2H-1" value="" style="aspect=fixed;html=1;points=[];align=center;image;fontSize=12;image=img/lib/azure2/blockchain/Azure_Blockchain_Service.svg;" vertex="1" parent="aRgtjxC-XMr0UuCk3uVI-29">
          <mxGeometry x="75" y="350" width="50" height="50" as="geometry" />
        </mxCell>
        <mxCell id="aRgtjxC-XMr0UuCk3uVI-21" value="RDBMS by Tableland &lt;br&gt;on &lt;br&gt;&lt;b&gt;Ethereum Blockchain&lt;/b&gt;" style="text;html=1;align=center;verticalAlign=middle;resizable=0;points=[];autosize=1;strokeColor=none;fillColor=none;" parent="aRgtjxC-XMr0UuCk3uVI-29" vertex="1">
          <mxGeometry x="25" y="290" width="150" height="60" as="geometry" />
        </mxCell>
        <mxCell id="ybuCih2673T1gLkviC2H-14" style="edgeStyle=orthogonalEdgeStyle;rounded=0;orthogonalLoop=1;jettySize=auto;html=1;exitX=0.5;exitY=0;exitDx=0;exitDy=0;dashed=1;" edge="1" parent="aRgtjxC-XMr0UuCk3uVI-29" source="ybuCih2673T1gLkviC2H-12" target="ybuCih2673T1gLkviC2H-1">
          <mxGeometry relative="1" as="geometry" />
        </mxCell>
        <mxCell id="ybuCih2673T1gLkviC2H-16" style="edgeStyle=orthogonalEdgeStyle;rounded=0;orthogonalLoop=1;jettySize=auto;html=1;exitX=0.5;exitY=1;exitDx=0;exitDy=0;entryX=0.5;entryY=0;entryDx=0;entryDy=0;" edge="1" parent="aRgtjxC-XMr0UuCk3uVI-29" source="ybuCih2673T1gLkviC2H-12" target="ybuCih2673T1gLkviC2H-15">
          <mxGeometry relative="1" as="geometry" />
        </mxCell>
        <mxCell id="ybuCih2673T1gLkviC2H-12" value="Store the data on Blokchain" style="rounded=1;whiteSpace=wrap;html=1;absoluteArcSize=1;arcSize=14;strokeWidth=2;" vertex="1" parent="aRgtjxC-XMr0UuCk3uVI-29">
          <mxGeometry x="40" y="440" width="120" height="50" as="geometry" />
        </mxCell>
        <mxCell id="ybuCih2673T1gLkviC2H-15" value="Generate a hash transaction" style="rounded=1;whiteSpace=wrap;html=1;absoluteArcSize=1;arcSize=14;strokeWidth=2;" vertex="1" parent="aRgtjxC-XMr0UuCk3uVI-29">
          <mxGeometry x="40" y="520" width="120" height="50" as="geometry" />
        </mxCell>
        <mxCell id="aRgtjxC-XMr0UuCk3uVI-36" style="edgeStyle=orthogonalEdgeStyle;rounded=0;orthogonalLoop=1;jettySize=auto;html=1;exitX=1;exitY=0.5;exitDx=0;exitDy=0;entryX=0;entryY=0.5;entryDx=0;entryDy=0;" parent="1" source="aRgtjxC-XMr0UuCk3uVI-12" target="aRgtjxC-XMr0UuCk3uVI-19" edge="1">
          <mxGeometry relative="1" as="geometry" />
        </mxCell>
        <mxCell id="aRgtjxC-XMr0UuCk3uVI-39" style="edgeStyle=orthogonalEdgeStyle;rounded=0;orthogonalLoop=1;jettySize=auto;html=1;exitX=0;exitY=0.5;exitDx=0;exitDy=0;entryX=1;entryY=0.5;entryDx=0;entryDy=0;fontSize=9;" parent="1" source="aRgtjxC-XMr0UuCk3uVI-28" target="aRgtjxC-XMr0UuCk3uVI-14" edge="1">
          <mxGeometry relative="1" as="geometry" />
        </mxCell>
        <mxCell id="ybuCih2673T1gLkviC2H-5" value="Arweave System" style="swimlane;whiteSpace=wrap;html=1;" vertex="1" parent="1">
          <mxGeometry x="625" y="40" width="200" height="1040" as="geometry" />
        </mxCell>
        <mxCell id="ybuCih2673T1gLkviC2H-21" style="edgeStyle=orthogonalEdgeStyle;rounded=0;orthogonalLoop=1;jettySize=auto;html=1;exitX=0.5;exitY=1;exitDx=0;exitDy=0;entryX=0.5;entryY=0;entryDx=0;entryDy=0;fontSize=8;" edge="1" parent="ybuCih2673T1gLkviC2H-5" source="ybuCih2673T1gLkviC2H-8" target="ybuCih2673T1gLkviC2H-11">
          <mxGeometry relative="1" as="geometry" />
        </mxCell>
        <mxCell id="ybuCih2673T1gLkviC2H-22" style="edgeStyle=orthogonalEdgeStyle;rounded=0;orthogonalLoop=1;jettySize=auto;html=1;exitX=0.5;exitY=0;exitDx=0;exitDy=0;fontSize=8;dashed=1;" edge="1" parent="ybuCih2673T1gLkviC2H-5" source="ybuCih2673T1gLkviC2H-8" target="ybuCih2673T1gLkviC2H-9">
          <mxGeometry relative="1" as="geometry" />
        </mxCell>
        <mxCell id="ybuCih2673T1gLkviC2H-8" value="Store the data on Blokchain" style="rounded=1;whiteSpace=wrap;html=1;absoluteArcSize=1;arcSize=14;strokeWidth=2;" vertex="1" parent="ybuCih2673T1gLkviC2H-5">
          <mxGeometry x="40" y="680" width="120" height="50" as="geometry" />
        </mxCell>
        <mxCell id="ybuCih2673T1gLkviC2H-11" value="Generate a hash transaction" style="rounded=1;whiteSpace=wrap;html=1;absoluteArcSize=1;arcSize=14;strokeWidth=2;" vertex="1" parent="ybuCih2673T1gLkviC2H-5">
          <mxGeometry x="40" y="760" width="120" height="50" as="geometry" />
        </mxCell>
        <mxCell id="ybuCih2673T1gLkviC2H-9" value="" style="aspect=fixed;html=1;points=[];align=center;image;fontSize=12;image=img/lib/azure2/blockchain/Azure_Blockchain_Service.svg;" vertex="1" parent="ybuCih2673T1gLkviC2H-5">
          <mxGeometry x="75" y="590" width="50" height="50" as="geometry" />
        </mxCell>
        <mxCell id="ybuCih2673T1gLkviC2H-10" value="&lt;font style=&quot;font-size: 9px;&quot;&gt;&lt;b&gt;Arweave Blockchain&lt;/b&gt;&lt;/font&gt;" style="text;html=1;align=center;verticalAlign=middle;resizable=0;points=[];autosize=1;strokeColor=none;fillColor=none;" vertex="1" parent="ybuCih2673T1gLkviC2H-5">
          <mxGeometry x="45" y="560" width="110" height="30" as="geometry" />
        </mxCell>
        <mxCell id="ybuCih2673T1gLkviC2H-13" style="edgeStyle=orthogonalEdgeStyle;rounded=0;orthogonalLoop=1;jettySize=auto;html=1;exitX=1;exitY=0.5;exitDx=0;exitDy=0;entryX=0;entryY=0.5;entryDx=0;entryDy=0;" edge="1" parent="1" source="aRgtjxC-XMr0UuCk3uVI-19" target="ybuCih2673T1gLkviC2H-12">
          <mxGeometry relative="1" as="geometry" />
        </mxCell>
        <mxCell id="ybuCih2673T1gLkviC2H-17" style="edgeStyle=orthogonalEdgeStyle;rounded=0;orthogonalLoop=1;jettySize=auto;html=1;exitX=0;exitY=0.5;exitDx=0;exitDy=0;entryX=1;entryY=0.5;entryDx=0;entryDy=0;" edge="1" parent="1" source="ybuCih2673T1gLkviC2H-15" target="aRgtjxC-XMr0UuCk3uVI-23">
          <mxGeometry relative="1" as="geometry" />
        </mxCell>
        <mxCell id="ybuCih2673T1gLkviC2H-20" style="edgeStyle=orthogonalEdgeStyle;rounded=0;orthogonalLoop=1;jettySize=auto;html=1;exitX=1;exitY=0.5;exitDx=0;exitDy=0;entryX=0;entryY=0.5;entryDx=0;entryDy=0;fontSize=8;" edge="1" parent="1" source="ybuCih2673T1gLkviC2H-18" target="ybuCih2673T1gLkviC2H-8">
          <mxGeometry relative="1" as="geometry" />
        </mxCell>
        <mxCell id="ybuCih2673T1gLkviC2H-23" style="edgeStyle=orthogonalEdgeStyle;rounded=0;orthogonalLoop=1;jettySize=auto;html=1;exitX=0;exitY=0.5;exitDx=0;exitDy=0;entryX=1;entryY=0.5;entryDx=0;entryDy=0;fontSize=8;" edge="1" parent="1" source="ybuCih2673T1gLkviC2H-11" target="aRgtjxC-XMr0UuCk3uVI-27">
          <mxGeometry relative="1" as="geometry" />
        </mxCell>
      </root>
    </mxGraphModel>
  </diagram>
</mxfile>
